<svg width="35" height="35" viewBox="0 0 30 30" fill="none" xmlns="http://www.w3.org/2000/svg">
<path d="M15 30C15 27.925 14.6001 25.975 13.8 24.15C13.0249 22.325 11.9626 20.7375 10.6126 19.3875C9.26259 18.0375 7.67487 16.975 5.85001 16.2C4.02515 15.4 2.07515 15 0 15C2.07515 15 4.02515 14.6125 5.85001 13.8375C7.67487 13.0375 9.26259 11.9625 10.6126 10.6125C11.9626 9.26251 13.0249 7.675 13.8 5.85C14.6001 4.02499 15 2.075 15 0C15 2.075 15.3877 4.02499 16.1624 5.85C16.9625 7.675 18.0375 9.26251 19.3874 10.6125C20.7374 11.9625 22.3251 13.0375 24.15 13.8375C25.9752 14.6125 27.9252 15 30 15C27.9252 15 25.9752 15.4 24.15 16.2C22.3251 16.975 20.7374 18.0375 19.3874 19.3875C18.0375 20.7375 16.9625 22.325 16.1624 24.15C15.3877 25.975 15 27.925 15 30Z" fill="url(#paint0_linear_7_62)" fill-opacity="0.47"/>
<defs>
<linearGradient id="paint0_linear_7_62" x1="15" y1="0" x2="15" y2="30" gradientUnits="userSpaceOnUse">
<stop stop-color="#FF0000"/>
<stop offset="1" stop-color="#260099"/>
</linearGradient>
</defs>
</svg>
